# 3ds Max Wavefront OBJ Exporter v0.97b - (c)2007 guruware
# File Created: 15.05.2015 12:24:59

mtllib control_arrow.mtl

#
# object Box023
#

v  -3.4913 -1.7966 20.9472
v  -14.8859 -1.7966 -20.9472
v  14.8859 -1.7966 -20.9472
v  3.4913 -1.7966 20.9472
v  -3.4913 1.7966 20.9472
v  3.4913 1.7966 20.9472
v  14.8859 1.7966 -20.9472
v  -14.8859 1.7966 -20.9472
# 8 vertices

vn 0.0000 -1.0000 -0.0000
vn 0.0000 1.0000 -0.0000
vn 0.0000 0.0000 1.0000
vn 0.9649 0.0000 0.2625
vn 0.0000 0.0000 -1.0000
vn -0.9649 0.0000 0.2625
# 6 vertex normals

vt 0.1400 0.2884 0.0000
vt 0.9551 0.0621 0.0000
vt 0.9581 0.6421 0.0000
vt 0.1408 0.4244 0.0000
vt 0.1393 0.4273 0.0000
vt 0.1378 0.2912 0.0000
vt 0.9515 0.0603 0.0000
vt 0.9579 0.6403 0.0000
vt 0.0380 0.5589 0.0000
vt 0.1769 0.5589 0.0000
vt 0.1769 0.6304 0.0000
vt 0.0380 0.6304 0.0000
vt 0.0254 0.9037 0.0000
vt 0.8901 0.9037 0.0000
vt 0.8901 0.9753 0.0000
vt 0.0254 0.9753 0.0000
vt 0.0405 0.6762 0.0000
vt 0.6335 0.6762 0.0000
vt 0.6335 0.7478 0.0000
vt 0.0405 0.7478 0.0000
vt 0.0346 0.7830 0.0000
vt 0.8994 0.7830 0.0000
vt 0.8994 0.8546 0.0000
vt 0.0346 0.8546 0.0000
# 24 texture coords

g Box023
usemtl wire_227153153
s 2
f 1/1/1 2/2/1 3/3/1 4/4/1 
s 4
f 5/5/2 6/6/2 7/7/2 8/8/2 
s 8
f 1/9/3 4/10/3 6/11/3 5/12/3 
s 16
f 4/13/4 3/14/4 7/15/4 6/16/4 
s 32
f 3/17/5 2/18/5 8/19/5 7/20/5 
s 64
f 2/21/6 1/22/6 5/23/6 8/24/6 
# 6 polygons

