# 3ds Max Wavefront OBJ Exporter v0.97b - (c)2007 guruware
# File Created: 14.05.2015 18:09:38

mtllib control_arrow.mtl

#
# object Box023
#

v  -3.4913 -1.7966 20.9472
v  -14.8859 -1.7966 -20.9472
v  14.8859 -1.7966 -20.9472
v  3.4913 -1.7966 20.9472
v  -3.4913 1.7966 20.9472
v  3.4913 1.7966 20.9472
v  14.8859 1.7966 -20.9472
v  -14.8859 1.7966 -20.9472
# 8 vertices

vn 0.0000 -1.0000 -0.0000
vn 0.0000 1.0000 -0.0000
vn 0.0000 0.0000 1.0000
vn 0.9649 0.0000 0.2625
vn 0.0000 0.0000 -1.0000
vn -0.9649 0.0000 0.2625
# 6 vertex normals

vt 1.0000 0.0000 0.0000
vt 1.0000 41.8943 0.0000
vt -28.7717 41.8943 0.0000
vt -28.7717 0.0000 0.0000
vt 0.0000 0.0000 0.0000
vt 29.7717 0.0000 0.0000
vt 29.7717 41.8943 0.0000
vt 0.0000 41.8943 0.0000
vt 29.7717 4.8134 0.0000
vt 0.0000 4.8134 0.0000
vt 41.8943 0.0000 0.0000
vt 41.8943 4.8134 0.0000
# 12 texture coords

g Box023
usemtl wire_227153153
s 2
f 1/1/1 2/2/1 3/3/1 4/4/1 
s 4
f 5/5/2 6/6/2 7/7/2 8/8/2 
s 8
f 1/5/3 4/6/3 6/9/3 5/10/3 
s 16
f 4/5/4 3/11/4 7/12/4 6/10/4 
s 32
f 3/5/5 2/6/5 8/9/5 7/10/5 
s 64
f 2/5/6 1/11/6 5/12/6 8/10/6 
# 6 polygons

