# 3ds Max Wavefront OBJ Exporter v0.97b - (c)2007 guruware
# File Created: 12.05.2015 21:06:54

mtllib player_laser.mtl

#
# object Cylinder004
#

v  0.0000 0.0000 -1.3788
v  -0.0000 1.0000 -1.3788
v  0.7071 0.7071 -1.3788
v  1.0000 0.0000 -1.3788
v  -1.0000 -0.0000 -1.3788
v  -0.7071 0.7071 -1.3788
v  0.0000 -1.0000 -1.3788
v  -0.7071 -0.7071 -1.3788
v  0.7071 -0.7071 -1.3788
v  0.7071 0.7071 13.6212
v  1.0000 -0.0000 13.6212
v  -0.0000 1.0000 13.6212
v  -0.7071 0.7071 13.6212
v  -1.0000 -0.0000 13.6212
v  -0.7071 -0.7071 13.6212
v  0.0000 -1.0000 13.6212
v  0.7071 -0.7071 13.6212
v  0.0000 -0.0000 13.6212
# 18 vertices

vn 0.0000 0.0000 -1.0000
vn 1.0000 0.0000 -0.0000
vn 0.7071 0.7071 0.0000
vn -0.0000 1.0000 0.0000
vn -0.7071 0.7071 0.0000
vn -1.0000 -0.0000 -0.0000
vn -0.7071 -0.7071 -0.0000
vn -0.0000 -1.0000 -0.0000
vn 0.0000 -1.0000 -0.0000
vn 0.7071 -0.7071 -0.0000
vn 0.0000 -0.0000 1.0000
# 11 vertex normals

vt 1.0000 1.0000 0.0000
vt 1.0000 0.0000 0.0000
vt 1.7071 0.2929 0.0000
vt 2.0000 1.0000 0.0000
vt 0.0000 1.0000 0.0000
vt 0.2929 0.2929 0.0000
vt 1.0000 2.0000 0.0000
vt 0.2929 1.7071 0.0000
vt 1.7071 1.7071 0.0000
vt 4.7124 0.0000 1.0000
vt 5.4978 0.0000 1.0000
vt 5.4978 15.0000 1.0000
vt 4.7124 15.0000 1.0000
vt -0.7854 0.0000 1.0000
vt 0.0000 0.0000 1.0000
vt 0.0000 15.0000 1.0000
vt -0.7854 15.0000 1.0000
vt 0.7854 0.0000 1.0000
vt 0.7854 15.0000 1.0000
vt 1.5708 0.0000 1.0000
vt 1.5708 15.0000 1.0000
vt 2.3562 0.0000 1.0000
vt 2.3562 15.0000 1.0000
vt 3.1416 0.0000 1.0000
vt 3.1416 15.0000 1.0000
vt 3.9270 0.0000 1.0000
vt 3.9270 15.0000 1.0000
# 27 texture coords

g Cylinder004
usemtl wire_084255000
s 1
f 1/1/1 2/2/1 3/3/1 4/4/1 
f 1/1/1 5/5/1 6/6/1 2/2/1 
f 1/1/1 7/7/1 8/8/1 5/5/1 
f 1/1/1 4/4/1 9/9/1 7/7/1 
s 8
f 4/10/2 3/11/3 10/12/3 11/13/2 
f 3/14/3 2/15/4 12/16/4 10/17/3 
f 2/15/4 6/18/5 13/19/5 12/16/4 
f 6/18/5 5/20/6 14/21/6 13/19/5 
f 5/20/6 8/22/7 15/23/7 14/21/6 
f 8/22/7 7/24/8 16/25/9 15/23/7 
f 7/24/8 9/26/10 17/27/10 16/25/9 
f 9/26/10 4/10/2 11/13/2 17/27/10 
s 1
f 18/1/11 17/3/11 11/4/11 10/9/11 
f 18/1/11 10/9/11 12/7/11 13/8/11 
f 18/1/11 13/8/11 14/5/11 15/6/11 
f 18/1/11 15/6/11 16/2/11 17/3/11 
# 16 polygons

