# 3ds Max Wavefront OBJ Exporter v0.97b - (c)2007 guruware
# File Created: 12.05.2015 17:30:27

mtllib player_turret.mtl

#
# object Box004
#

v  2.3180 4.5458 1.6488
v  2.3180 4.5458 -3.9306
v  2.0689 9.2237 -3.9306
v  2.0689 9.2237 1.6488
v  -2.3180 4.5458 1.6488
v  -2.0689 9.2237 1.6488
v  -2.0689 9.2237 -3.9306
v  -2.3180 4.5458 -3.9306
v  -0.0000 10.2642 1.6488
v  -0.0000 4.5458 1.6488
v  -0.0000 10.2642 -3.9306
v  -0.0000 4.5458 -3.9306
v  -0.0500 9.8368 6.5692
v  1.3401 9.2610 6.5692
v  1.3401 9.2610 -18.9058
v  -0.0500 9.8368 -18.9058
v  1.9159 7.8709 6.5692
v  1.9159 7.8709 -18.9058
v  1.3401 6.4808 6.5692
v  1.3401 6.4808 -18.9058
v  -0.0500 5.9050 6.5692
v  -0.0500 5.9050 -18.9058
v  -1.4401 6.4808 6.5692
v  -1.4401 6.4808 -18.9058
v  -2.0159 7.8709 6.5692
v  -2.0159 7.8709 -18.9058
v  -1.4401 9.2610 6.5692
v  -1.4401 9.2610 -18.9058
v  2.3180 -4.8599 1.6488
v  2.0689 -9.5377 1.6488
v  2.0689 -9.5377 -3.9306
v  2.3180 -4.8599 -3.9306
v  -2.3180 -4.8599 1.6488
v  -2.3180 -4.8599 -3.9306
v  -2.0689 -9.5377 -3.9306
v  -2.0689 -9.5377 1.6488
v  0.0000 -4.8599 1.6488
v  0.0000 -10.5783 1.6488
v  0.0000 -10.5783 -3.9306
v  0.0000 -4.8599 -3.9306
v  -0.0500 -10.1509 6.5692
v  -0.0500 -10.1509 -18.9058
v  1.3401 -9.5751 -18.9058
v  1.3401 -9.5751 6.5692
v  1.9159 -8.1850 -18.9058
v  1.9159 -8.1850 6.5692
v  1.3401 -6.7949 -18.9058
v  1.3401 -6.7949 6.5692
v  -0.0500 -6.2191 -18.9058
v  -0.0500 -6.2191 6.5692
v  -1.4401 -6.7949 -18.9058
v  -1.4401 -6.7949 6.5692
v  -2.0159 -8.1850 -18.9058
v  -2.0159 -8.1850 6.5692
v  -1.4401 -9.5751 -18.9058
v  -1.4401 -9.5751 6.5692
v  5.0336 -4.8599 3.6855
v  6.7724 -4.8599 -2.8039
v  6.7724 4.5458 -2.8039
v  5.0336 4.5458 3.6855
v  -4.2865 -4.8599 1.1882
v  -4.2865 4.5458 1.1882
v  -2.5476 4.5458 -5.3012
v  -2.5476 -4.8599 -5.3012
v  7.6208 13.4621 0.9011
v  8.8264 12.6408 -3.5982
v  7.4039 12.1541 -3.7960
v  6.2442 12.9442 0.5322
v  9.8866 10.2758 -7.5548
v  8.4238 9.8791 -7.6021
v  10.6735 6.6525 -10.4915
v  9.1808 6.3936 -10.4271
v  11.0922 2.2079 -12.0541
v  9.5835 2.1180 -11.9303
v  11.0922 -2.5220 -12.0541
v  9.5835 -2.4320 -11.9303
v  10.6735 -6.9666 -10.4915
v  9.1808 -6.7076 -10.4271
v  9.8866 -10.5899 -7.5548
v  8.4238 -10.1931 -7.6021
v  8.8264 -12.9548 -3.5982
v  7.4039 -12.4681 -3.7960
v  7.6208 -13.7762 0.9011
v  6.2442 -13.2582 0.5322
v  6.4152 -12.9548 5.4004
v  5.0845 -12.4681 4.8604
v  5.3551 -10.5899 9.3570
v  4.0646 -10.1931 8.6666
v  4.5682 -6.9666 12.2937
v  3.3077 -6.7076 11.4916
v  4.1495 -2.5220 13.8563
v  2.9049 -2.4320 12.9948
v  4.1495 2.2079 13.8563
v  2.9049 2.1180 12.9948
v  4.5682 6.6525 12.2937
v  3.3077 6.3936 11.4916
v  5.3551 10.2758 9.3570
v  4.0646 9.8791 8.6666
v  6.4152 12.6407 5.4004
v  5.0845 12.1541 4.8604
v  5.3999 8.2402 -2.8582
v  6.0955 6.6885 -5.4543
v  6.6118 4.3111 -7.3812
v  3.8178 8.2402 3.0462
v  6.8866 1.3947 -8.4065
v  6.8866 -1.7088 -8.4065
v  6.0955 -7.0026 -5.4543
v  6.6118 -4.6251 -7.3812
v  5.3999 -8.5543 -2.8582
v  4.6088 -9.0932 0.0940
v  3.1222 -7.0026 5.6424
v  3.8178 -8.5543 3.0462
v  2.6058 -4.6251 7.5693
v  2.3311 -1.7088 8.5946
v  2.6058 4.3111 7.5693
v  2.3311 1.3947 8.5946
v  3.1222 6.6885 5.6424
v  4.6088 8.7792 0.0940
v  6.1689 10.6599 -3.5639
v  5.1499 11.3541 0.2390
v  7.0650 8.6610 -6.9081
v  7.7301 5.5985 -9.3902
v  8.0840 1.8418 -10.7109
v  8.0840 -2.1559 -10.7109
v  7.7301 -5.9126 -9.3902
v  7.0650 -8.9750 -6.9081
v  6.1689 -10.9739 -3.5639
v  5.1499 -11.6681 0.2390
v  4.1309 -10.9739 4.0419
v  3.2349 -8.9751 7.3861
v  2.5698 -5.9126 9.8682
v  2.2159 -2.1559 11.1890
v  2.2159 1.8418 11.1890
v  2.5698 5.5985 9.8682
v  3.2349 8.6610 7.3861
v  4.1309 10.6599 4.0419
# 136 vertices

vn 0.9989 0.0466 -0.0000
vn -0.9989 0.0466 0.0000
vn -0.9989 0.0466 -0.0000
vn -0.0000 -0.0000 1.0000
vn 0.0000 0.0000 1.0000
vn 0.4976 0.8674 -0.0000
vn -0.0000 1.0000 -0.0000
vn -0.0000 1.0000 0.0000
vn -0.4976 0.8674 0.0000
vn -0.0000 -0.0000 -1.0000
vn 0.0000 -0.0000 -1.0000
vn 0.0000 -1.0000 -0.0000
vn 0.0000 1.0000 -0.0000
vn 0.7392 0.6735 -0.0000
vn 1.0000 -0.0000 -0.0000
vn 1.0000 0.0000 -0.0000
vn 0.7392 -0.6735 -0.0000
vn 0.0000 -1.0000 0.0000
vn -0.0000 -1.0000 0.0000
vn -0.7392 -0.6735 0.0000
vn -1.0000 -0.0000 0.0000
vn -0.7392 0.6735 0.0000
vn 0.0000 0.0000 -1.0000
vn 0.9989 -0.0466 -0.0000
vn -0.9989 -0.0466 0.0000
vn -0.9989 -0.0466 -0.0000
vn -0.0000 0.0000 1.0000
vn 0.4976 -0.8674 -0.0000
vn -0.0000 -1.0000 -0.0000
vn -0.4976 -0.8674 0.0000
vn -0.0000 0.0000 -1.0000
vn -1.0000 0.0000 0.0000
vn 0.9074 0.0000 0.4203
vn -0.9074 -0.0000 -0.4203
vn -0.1532 -0.0000 0.9882
vn 0.1532 0.0000 -0.9882
vn -0.3576 0.9097 -0.2112
vn -0.2352 0.7341 -0.6370
vn -0.4491 0.6298 -0.6338
vn -0.5834 0.7753 -0.2419
vn -0.1348 0.4879 -0.8624
vn -0.3411 0.4211 -0.8404
vn -0.0777 0.2715 -0.9593
vn -0.2738 0.2379 -0.9319
vn -0.0531 0.0869 -0.9948
vn -0.2421 0.0769 -0.9672
vn -0.0531 -0.0869 -0.9948
vn -0.2421 -0.0769 -0.9672
vn -0.0777 -0.2715 -0.9593
vn -0.2738 -0.2379 -0.9319
vn -0.1348 -0.4879 -0.8624
vn -0.3411 -0.4211 -0.8404
vn -0.2352 -0.7341 -0.6370
vn -0.4491 -0.6298 -0.6338
vn -0.3576 -0.9097 -0.2112
vn -0.5834 -0.7753 -0.2419
vn -0.4280 -0.8436 0.3242
vn -0.6755 -0.7079 0.2065
vn -0.4197 -0.5816 0.6968
vn -0.6866 -0.5077 0.5204
vn -0.3925 -0.3209 0.8619
vn -0.6594 -0.2944 0.6917
vn -0.3771 -0.1018 0.9206
vn -0.6371 -0.0959 0.7648
vn -0.3771 0.1018 0.9206
vn -0.6371 0.0959 0.7648
vn -0.3925 0.3209 0.8619
vn -0.6594 0.2944 0.6917
vn -0.4197 0.5816 0.6968
vn -0.6866 0.5077 0.5204
vn -0.4280 0.8436 0.3242
vn -0.6755 0.7079 0.2065
vn 0.9074 -0.0000 0.4203
vn -0.8732 0.0919 -0.4786
vn -0.8515 0.0667 -0.5201
vn -0.8381 0.0397 -0.5441
vn -0.9319 0.0979 -0.3491
vn -0.8319 0.0130 -0.5547
vn -0.8319 -0.0130 -0.5547
vn -0.8515 -0.0667 -0.5201
vn -0.8381 -0.0397 -0.5441
vn -0.8732 -0.0919 -0.4786
vn -0.9029 -0.1062 -0.4165
vn -0.9522 -0.0746 -0.2964
vn -0.9319 -0.0979 -0.3491
vn -0.9639 -0.0454 -0.2624
vn -0.9690 -0.0149 -0.2468
vn -0.9639 0.0454 -0.2624
vn -0.9690 0.0149 -0.2468
vn -0.9522 0.0746 -0.2964
vn -0.9029 0.1062 -0.4165
vn -0.7499 0.3180 -0.5801
vn -0.8445 0.3784 -0.3789
vn -0.6731 0.2282 -0.7035
vn -0.6215 0.1363 -0.7715
vn -0.5955 0.0454 -0.8021
vn -0.5955 -0.0454 -0.8021
vn -0.6215 -0.1363 -0.7715
vn -0.6731 -0.2282 -0.7035
vn -0.7499 -0.3180 -0.5801
vn -0.8445 -0.3784 -0.3789
vn -0.9223 -0.3610 -0.1382
vn -0.9583 -0.2795 0.0599
vn -0.9669 -0.1725 0.1880
vn -0.9666 -0.0580 0.2497
vn -0.9666 0.0580 0.2497
vn -0.9669 0.1725 0.1880
vn -0.9583 0.2795 0.0599
vn -0.9223 0.3610 -0.1382
# 109 vertex normals

vt 1.0000 0.0000 0.0000
vt 1.0000 13.4367 0.0000
vt -17.8114 13.4367 0.0000
vt -17.8114 0.0000 0.0000
vt 0.0000 0.0000 0.0000
vt 18.8114 0.0000 0.0000
vt 18.8114 13.4367 0.0000
vt 0.0000 13.4367 0.0000
vt 18.8114 9.6488 0.0000
vt 0.0000 9.6488 0.0000
vt 18.8114 19.2977 0.0000
vt 0.0000 19.2977 0.0000
vt 13.4367 0.0000 0.0000
vt 13.4367 9.6488 0.0000
vt 13.4367 19.2977 0.0000
vt 18.5282 -0.0000 1.0000
vt 15.4402 -0.0000 1.0000
vt 15.4402 -50.9501 1.0000
vt 18.5282 -50.9501 1.0000
vt 12.3522 -0.0000 1.0000
vt 12.3522 -50.9501 1.0000
vt 9.2641 -0.0000 1.0000
vt 9.2641 -50.9501 1.0000
vt 6.1761 -0.0000 1.0000
vt 6.1761 -50.9501 1.0000
vt 3.0880 -0.0000 1.0000
vt 3.0880 -50.9501 1.0000
vt 0.0000 -0.0000 1.0000
vt 0.0000 -50.9501 1.0000
vt -3.0880 -0.0000 1.0000
vt -3.0880 -50.9501 1.0000
vt 21.6163 -0.0000 1.0000
vt 21.6163 -50.9501 1.0000
vt 24.7043 -0.0000 1.0000
vt 27.7924 -0.0000 1.0000
vt 30.8804 -0.0000 1.0000
vt 43.2326 -0.0000 1.0000
vt 33.9684 -0.0000 1.0000
vt 37.0565 -0.0000 1.0000
vt 40.1445 -0.0000 1.0000
vt 46.3206 -0.0000 1.0000
vt -6.1761 -50.9501 1.0000
vt 133.8901 0.0000 1.0000
vt 143.8079 0.0000 1.0000
vt 143.8079 2.8504 1.0000
vt 133.8901 2.8504 1.0000
vt 153.7257 0.0000 1.0000
vt 153.7257 2.8504 1.0000
vt 163.6435 0.0000 1.0000
vt 163.6435 2.8504 1.0000
vt 173.5612 0.0000 1.0000
vt 173.5612 2.8504 1.0000
vt 183.4790 0.0000 1.0000
vt 183.4790 2.8504 1.0000
vt 4.9589 0.0000 1.0000
vt 14.8767 0.0000 1.0000
vt 14.8767 2.8504 1.0000
vt 4.9589 2.8504 1.0000
vt 24.7945 0.0000 1.0000
vt 24.7945 2.8504 1.0000
vt 34.7122 0.0000 1.0000
vt 34.7122 2.8504 1.0000
vt 44.6300 0.0000 1.0000
vt 44.6300 2.8504 1.0000
vt 54.5478 0.0000 1.0000
vt 54.5478 2.8504 1.0000
vt 64.4656 0.0000 1.0000
vt 64.4656 2.8504 1.0000
vt 74.3834 0.0000 1.0000
vt 74.3834 2.8504 1.0000
vt 84.3012 0.0000 1.0000
vt 84.3012 2.8504 1.0000
vt 94.2189 0.0000 1.0000
vt 94.2189 2.8504 1.0000
vt 104.1367 0.0000 1.0000
vt 104.1367 2.8504 1.0000
vt 114.0545 0.0000 1.0000
vt 114.0545 2.8504 1.0000
vt 123.9723 0.0000 1.0000
vt 123.9723 2.8504 1.0000
vt -44.6300 0.0000 1.0000
vt -4.9589 0.0000 1.0000
vt -24.7945 0.0000 1.0000
vt -14.8767 0.0000 1.0000
vt -34.7123 0.0000 1.0000
vt -54.5478 0.0000 1.0000
vt 302.4924 2.8504 1.0000
vt 203.3146 2.8504 1.0000
vt 193.3968 2.8504 1.0000
vt 213.2324 2.8504 1.0000
vt 223.1502 2.8504 1.0000
vt 242.9857 2.8504 1.0000
vt 233.0680 2.8504 1.0000
vt 252.9035 2.8504 1.0000
vt 262.8213 2.8504 1.0000
vt 282.6569 2.8504 1.0000
vt 272.7391 2.8504 1.0000
vt 292.5747 2.8504 1.0000
vt 312.4102 2.8504 1.0000
# 99 texture coords

g Box004
usemtl wire_087225087
s 2
f 1/1/1 2/2/1 3/3/1 4/4/1 
s 4
f 5/5/2 6/6/2 7/7/2 8/8/3 
s 8
f 1/5/4 4/6/4 9/9/4 10/10/4 
f 10/10/4 9/9/4 6/11/4 5/12/5 
s 16
f 4/5/6 3/13/6 11/14/7 9/10/8 
f 9/10/8 11/14/7 7/15/9 6/12/9 
s 32
f 3/5/10 2/6/11 12/9/10 11/10/11 
f 11/10/11 12/9/10 8/11/11 7/12/11 
s 64
f 2/5/12 1/13/12 10/14/12 12/10/12 
f 12/10/12 10/14/12 5/15/12 8/12/12 
s 8
f 13/16/13 14/17/14 15/18/14 16/19/8 
f 14/17/14 17/20/15 18/21/16 15/18/14 
f 17/20/15 19/22/17 20/23/17 18/21/16 
f 19/22/17 21/24/18 22/25/19 20/23/17 
f 21/24/18 23/26/20 24/27/20 22/25/19 
f 23/26/20 25/28/21 26/29/21 24/27/20 
f 25/28/21 27/30/22 28/31/22 26/29/21 
f 27/32/22 13/16/13 16/19/8 28/33/22 
s 1
f 25/34/5 23/35/5 21/36/5 13/37/5 
f 21/36/5 19/38/5 17/39/5 13/37/5 
f 17/39/5 14/40/5 13/37/5 
f 27/41/5 25/34/5 13/37/5 
f 15/18/23 18/21/23 20/23/23 28/31/23 
f 20/23/23 22/25/23 24/27/23 28/31/23 
f 24/27/23 26/29/23 28/31/23 
f 16/42/23 15/18/23 28/31/23 
s 2
f 29/1/24 30/4/24 31/3/24 32/2/24 
s 4
f 33/5/25 34/8/26 35/7/25 36/6/25 
s 8
f 29/5/27 37/10/27 38/9/27 30/6/27 
f 37/10/27 33/12/5 36/11/27 38/9/27 
s 16
f 30/5/28 38/10/19 39/14/29 31/13/28 
f 38/10/19 36/12/30 35/15/30 39/14/29 
s 32
f 31/5/31 39/10/23 40/9/31 32/6/31 
f 39/10/23 35/12/23 34/11/23 40/9/31 
s 64
f 32/5/7 40/10/7 37/14/7 29/13/7 
f 40/10/7 34/12/7 33/15/7 37/14/7 
s 8
f 41/16/12 42/19/19 43/18/17 44/17/17 
f 44/17/17 43/18/17 45/21/16 46/20/16 
f 46/20/16 45/21/16 47/23/14 48/22/14 
f 48/22/14 47/23/14 49/25/8 50/24/8 
f 50/24/8 49/25/8 51/27/22 52/26/22 
f 52/26/22 51/27/22 53/29/32 54/28/32 
f 54/28/32 53/29/32 55/31/20 56/30/20 
f 56/32/20 55/33/20 42/19/19 41/16/12 
s 1
f 41/37/5 44/40/5 46/39/5 50/36/5 
f 46/39/5 48/38/5 50/36/5 
f 50/36/5 52/35/5 54/34/5 41/37/5 
f 56/41/5 41/37/5 54/34/5 
f 55/31/23 53/29/23 51/27/23 47/23/23 
f 51/27/23 49/25/23 47/23/23 
f 47/23/23 45/21/23 43/18/23 55/31/23 
f 42/42/23 55/31/23 43/18/23 
s 2
f 57/1/33 58/2/33 59/3/33 60/4/33 
s 4
f 61/5/34 62/6/34 63/7/34 64/8/34 
s 8
f 57/5/35 60/6/35 62/11/35 61/12/35 
s 16
f 60/5/7 59/13/7 63/15/7 62/12/7 
s 32
f 59/5/36 58/6/36 64/11/36 63/12/36 
s 64
f 58/5/12 57/13/12 61/15/12 64/12/12 
s 1
f 65/43/37 66/44/38 67/45/39 68/46/40 
f 66/44/38 69/47/41 70/48/42 67/45/39 
f 69/47/41 71/49/43 72/50/44 70/48/42 
f 71/49/43 73/51/45 74/52/46 72/50/44 
f 73/51/45 75/53/47 76/54/48 74/52/46 
f 75/55/47 77/56/49 78/57/50 76/58/48 
f 77/56/49 79/59/51 80/60/52 78/57/50 
f 79/59/51 81/61/53 82/62/54 80/60/52 
f 81/61/53 83/63/55 84/64/56 82/62/54 
f 83/63/55 85/65/57 86/66/58 84/64/56 
f 85/65/57 87/67/59 88/68/60 86/66/58 
f 87/67/59 89/69/61 90/70/62 88/68/60 
f 89/69/61 91/71/63 92/72/64 90/70/62 
f 91/71/63 93/73/65 94/74/66 92/72/64 
f 93/73/65 95/75/67 96/76/68 94/74/66 
f 95/75/67 97/77/69 98/78/70 96/76/68 
f 97/77/69 99/79/71 100/80/72 98/78/70 
f 99/79/71 65/43/37 68/46/40 100/80/72 
s 2
f 97/77/33 95/75/33 93/73/33 65/81/33 
f 93/73/33 91/71/33 89/69/33 85/65/33 
f 89/69/33 87/67/33 85/65/33 
f 85/65/33 83/63/73 81/61/33 77/56/33 
f 81/61/33 79/59/33 77/56/33 
f 77/56/33 75/55/33 73/82/33 69/83/33 
f 73/82/33 71/84/73 69/83/33 
f 85/65/33 77/56/33 69/83/33 93/73/33 
f 69/83/33 66/85/33 65/81/33 93/73/33 
f 99/86/33 97/77/33 65/81/33 
s 1
f 101/45/74 102/48/75 103/50/76 104/87/77 
f 103/50/76 105/52/78 106/54/79 107/88/80 
f 106/54/79 108/89/81 107/88/80 
f 107/88/80 109/90/82 110/91/83 111/92/84 
f 110/91/83 112/93/85 111/92/84 
f 111/92/84 113/94/86 114/95/87 115/96/88 
f 114/95/87 116/97/89 115/96/88 
f 107/88/80 111/92/84 115/96/88 103/50/76 
f 115/96/88 117/98/90 104/87/77 103/50/76 
f 118/99/91 101/45/74 104/87/77 
f 68/46/40 67/45/39 119/45/92 120/99/93 
f 67/45/39 70/48/42 121/48/94 119/45/92 
f 70/48/42 72/50/44 122/50/95 121/48/94 
f 72/50/44 74/52/46 123/52/96 122/50/95 
f 74/52/46 76/54/48 124/54/97 123/52/96 
f 76/58/48 78/57/50 125/89/98 124/54/97 
f 78/57/50 80/60/52 126/88/99 125/89/98 
f 80/60/52 82/62/54 127/90/100 126/88/99 
f 82/62/54 84/64/56 128/91/101 127/90/100 
f 84/64/56 86/66/58 129/93/102 128/91/101 
f 86/66/58 88/68/60 130/92/103 129/93/102 
f 88/68/60 90/70/62 131/94/104 130/92/103 
f 90/70/62 92/72/64 132/95/105 131/94/104 
f 92/72/64 94/74/66 133/97/106 132/95/105 
f 94/74/66 96/76/68 134/96/107 133/97/106 
f 96/76/68 98/78/70 135/98/108 134/96/107 
f 98/78/70 100/80/72 136/87/109 135/98/108 
f 100/80/72 68/46/40 120/99/93 136/87/109 
f 120/99/93 119/45/92 101/45/74 118/99/91 
f 119/45/92 121/48/94 102/48/75 101/45/74 
f 121/48/94 122/50/95 103/50/76 102/48/75 
f 122/50/95 123/52/96 105/52/78 103/50/76 
f 123/52/96 124/54/97 106/54/79 105/52/78 
f 124/54/97 125/89/98 108/89/81 106/54/79 
f 125/89/98 126/88/99 107/88/80 108/89/81 
f 126/88/99 127/90/100 109/90/82 107/88/80 
f 127/90/100 128/91/101 110/91/83 109/90/82 
f 128/91/101 129/93/102 112/93/85 110/91/83 
f 129/93/102 130/92/103 111/92/84 112/93/85 
f 130/92/103 131/94/104 113/94/86 111/92/84 
f 131/94/104 132/95/105 114/95/87 113/94/86 
f 132/95/105 133/97/106 116/97/89 114/95/87 
f 133/97/106 134/96/107 115/96/88 116/97/89 
f 134/96/107 135/98/108 117/98/90 115/96/88 
f 135/98/108 136/87/109 104/87/77 117/98/90 
f 136/87/109 120/99/93 118/99/91 104/87/77 
# 116 polygons - 16 triangles

