# 3ds Max Wavefront OBJ Exporter v0.97b - (c)2007 guruware
# File Created: 14.05.2015 15:21:33

mtllib player_left.mtl

#
# object Box020
#

v  -26.0768 -1.8193 -29.4207
v  -13.0384 -1.8193 -29.4207
v  -9.7475 -1.8193 -14.7821
v  -19.4949 -1.8193 -14.7821
v  -13.0384 -1.8193 -0.1435
v  -26.0768 -1.8193 -0.1435
v  0.0000 -1.8193 -19.4962
v  0.0000 -1.8193 -4.8576
v  -0.0000 -1.8193 9.7810
v  -7.0293 -1.8193 16.3912
v  -3.5146 -1.8193 26.3157
v  13.0384 -1.8193 -29.4207
v  9.7475 -1.8193 -14.7821
v  13.0384 -1.8193 -0.1435
v  3.5146 -1.8193 26.3157
v  -0.0000 -1.8193 29.4207
v  7.0293 -1.8193 16.3912
v  26.0768 -1.8193 -29.4207
v  19.4949 -1.8193 -14.7821
v  26.0768 -1.8193 -0.1435
v  -26.0768 1.8193 -29.4207
v  -19.4949 1.8193 -14.7821
v  -9.7475 1.8193 -14.7821
v  -13.0384 1.8193 -29.4207
v  -26.0768 1.8193 -0.1435
v  -13.0384 1.8193 -0.1435
v  0.0000 1.8193 -4.8576
v  0.0000 1.8193 -19.4962
v  -0.0000 1.8193 9.7810
v  -7.0293 1.8193 16.3912
v  -3.5146 1.8193 26.3157
v  -0.0000 1.8193 29.4207
v  9.7475 1.8193 -14.7821
v  13.0384 1.8193 -29.4207
v  13.0384 1.8193 -0.1435
v  7.0293 1.8193 16.3912
v  3.5146 1.8193 26.3157
v  19.4949 1.8193 -14.7821
v  26.0768 1.8193 -29.4207
v  26.0768 1.8193 -0.1435
# 40 vertices

vn 0.0000 -1.0000 -0.0000
vn 0.0000 1.0000 -0.0000
vn -0.9120 0.0000 0.4101
vn -1.0000 0.0000 -0.0000
vn -0.9766 0.0000 0.2150
vn -0.6555 0.0000 0.7552
vn -0.9426 0.0000 0.3338
vn -0.8288 0.0000 0.5595
vn -0.0000 0.0000 1.0000
vn 0.8288 0.0000 0.5595
vn 0.9426 0.0000 0.3338
vn 0.6555 0.0000 0.7552
vn 0.9766 0.0000 0.2150
vn 1.0000 0.0000 0.0000
vn 0.9120 0.0000 0.4101
vn 0.0000 0.0000 -1.0000
vn -0.3196 0.0000 -0.9476
vn 0.3196 0.0000 -0.9476
# 18 vertex normals

vt 1.0000 0.0000 0.0000
vt 1.0000 13.0384 0.0000
vt -13.6386 13.0384 0.0000
vt -13.6386 0.0000 0.0000
vt -28.2772 13.0384 0.0000
vt -28.2772 0.0000 0.0000
vt 1.0000 26.0768 0.0000
vt -13.6386 26.0768 0.0000
vt -28.2772 26.0768 0.0000
vt -37.4250 13.2522 0.0000
vt -42.9158 13.0384 0.0000
vt 1.0000 39.1152 0.0000
vt -13.6386 39.1152 0.0000
vt -28.2772 39.1152 0.0000
vt -42.9158 39.1152 0.0000
vt -42.9158 26.0768 0.0000
vt -37.3916 39.0359 0.0000
vt 1.0000 52.1537 0.0000
vt -13.6386 52.1537 0.0000
vt -28.2772 52.1537 0.0000
vt 0.0000 0.0000 0.0000
vt 14.6386 0.0000 0.0000
vt 14.6386 13.0384 0.0000
vt 0.0000 13.0384 0.0000
vt 29.2772 0.0000 0.0000
vt 29.2772 13.0384 0.0000
vt 14.6386 26.0768 0.0000
vt 0.0000 26.0768 0.0000
vt 29.2772 26.0768 0.0000
vt 38.4250 13.2522 0.0000
vt 43.9158 13.0384 0.0000
vt 43.9158 26.0768 0.0000
vt 14.6386 39.1152 0.0000
vt 0.0000 39.1152 0.0000
vt 29.2772 39.1152 0.0000
vt 38.3916 39.0359 0.0000
vt 43.9158 39.1152 0.0000
vt 14.6386 52.1537 0.0000
vt 0.0000 52.1537 0.0000
vt 29.2772 52.1537 0.0000
vt 14.6386 3.6386 0.0000
vt 0.0000 3.6386 0.0000
vt 29.2772 3.6386 0.0000
vt 43.9158 0.0000 0.0000
vt 43.9158 3.6386 0.0000
vt 13.0384 0.0000 0.0000
vt 13.0384 3.6386 0.0000
vt 26.0768 0.0000 0.0000
vt 26.0768 3.6386 0.0000
vt 39.1152 0.0000 0.0000
vt 39.1152 3.6386 0.0000
vt 52.1537 0.0000 0.0000
vt 52.1537 3.6386 0.0000
# 53 texture coords

g Box020
usemtl 20___Default
s 2
f 1/1/1 2/2/1 3/3/1 4/4/1 
f 4/4/1 3/3/1 5/5/1 6/6/1 
f 2/2/1 7/7/1 8/8/1 3/3/1 
f 3/3/1 8/8/1 9/9/1 5/5/1 
f 10/10/1 11/11/1 5/5/1 9/9/1 
f 7/7/1 12/12/1 13/13/1 8/8/1 
f 8/8/1 13/13/1 14/14/1 9/9/1 
f 15/15/1 16/16/1 9/9/1 17/17/1 
f 12/12/1 18/18/1 19/19/1 13/13/1 
f 13/13/1 19/19/1 20/20/1 14/14/1 
s 4
f 21/21/2 22/22/2 23/23/2 24/24/2 
f 22/22/2 25/25/2 26/26/2 23/23/2 
f 24/24/2 23/23/2 27/27/2 28/28/2 
f 23/23/2 26/26/2 29/29/2 27/27/2 
f 30/30/2 31/31/2 32/32/2 29/29/2 
f 28/28/2 27/27/2 33/33/2 34/34/2 
f 27/27/2 29/29/2 35/35/2 33/33/2 
f 36/36/2 37/37/2 35/35/2 29/29/2 
f 34/34/2 33/33/2 38/38/2 39/39/2 
f 33/33/2 35/35/2 40/40/2 38/38/2 
s 8
f 1/21/3 4/22/4 22/41/4 21/42/3 
f 4/22/4 6/25/5 25/43/5 22/41/4 
f 6/25/5 10/44/6 30/45/6 25/43/5 
s 16
f 10/21/7 11/46/8 31/47/8 30/42/7 
f 11/46/8 16/48/9 32/49/9 31/47/8 
f 16/48/9 15/50/10 37/51/10 32/49/9 
f 15/50/10 17/52/11 36/53/11 37/51/10 
s 32
f 17/21/12 20/22/13 40/41/13 36/42/12 
f 20/22/13 19/25/14 38/43/14 40/41/13 
f 19/25/14 18/44/15 39/45/15 38/43/14 
s 64
f 18/21/16 12/46/17 34/47/17 39/42/16 
f 12/46/17 7/48/16 28/49/16 34/47/17 
f 7/48/16 2/50/18 24/51/18 28/49/16 
f 2/50/18 1/52/16 21/53/16 24/51/18 
s 2
f 9/9/1 16/16/1 11/11/1 10/10/1 
f 14/14/1 15/15/1 17/17/1 9/9/1 
s 4
f 26/26/2 31/31/2 30/30/2 29/29/2 
f 29/29/2 32/32/2 37/37/2 36/36/2 
s off
f 40/40/2 35/35/2 36/53/2 
f 25/25/2 30/45/2 26/26/2 
f 6/6/1 5/5/1 10/44/1 
f 17/52/1 14/14/1 20/20/1 
# 38 polygons - 4 triangles

