# 3ds Max Wavefront OBJ Exporter v0.97b - (c)2007 guruware
# File Created: 15.05.2015 12:52:53

mtllib ship_trail.mtl

#
# object Box026
#

v  -5.8069 -1.4940 7.2660
v  -5.8069 -0.0000 7.2660
v  -8.2618 -0.0000 4.6394
v  -5.8069 1.4940 7.2660
v  -5.8069 0.0000 -7.2660
v  -2.8428 0.0000 -8.9456
v  -2.8428 -1.4940 -8.9456
v  -5.8069 -1.4940 -7.2660
v  -8.2618 0.0000 -4.6395
v  -5.8069 1.4940 -7.2660
v  -2.8428 -1.4940 8.9456
v  5.8069 -1.4940 7.2660
v  5.8069 -1.4940 -7.2660
v  8.2618 0.0000 -4.6395
v  8.2618 -0.0000 4.6394
v  5.8069 1.4940 -7.2660
v  5.8069 1.4940 7.2660
v  2.9272 1.4940 -8.9456
v  2.9272 1.4940 8.9456
v  -2.8428 -0.0000 8.9456
v  -2.8428 1.4940 8.9456
v  -2.8428 1.4940 -8.9456
v  5.8069 0.0000 -7.2660
v  5.8069 -0.0000 7.2660
v  2.9272 0.0000 -8.9456
v  2.9272 -1.4940 -8.9456
v  0.0000 -1.4940 -8.9456
v  0.0000 0.0000 -8.9456
v  2.9272 -1.4940 8.9456
v  0.0000 -1.4940 8.9456
v  -0.0000 1.4940 8.9456
v  -0.0000 1.4940 -8.9456
v  2.9272 -0.0000 8.9456
v  -0.0000 -0.0000 8.9456
# 34 vertices

vn -0.3662 -0.0000 0.9306
vn -0.3851 -0.0000 0.9229
vn -0.4842 -0.0000 0.8750
vn -0.3851 0.0000 -0.9229
vn -0.1421 0.0000 -0.9899
vn -0.1421 -0.0000 -0.9899
vn -0.3662 0.0000 -0.9306
vn -0.4842 0.0000 -0.8750
vn -0.0000 -1.0000 -0.0000
vn 0.0000 -1.0000 -0.0000
vn 0.5199 -0.8542 -0.0000
vn 1.0000 0.0000 0.0000
vn 1.0000 0.0000 -0.0000
vn 0.5199 0.8542 0.0000
vn -0.0000 1.0000 0.0000
vn 0.0000 1.0000 0.0000
vn -0.5199 0.8542 0.0000
vn -1.0000 0.0000 -0.0000
vn -1.0000 -0.0000 0.0000
vn -0.5199 -0.8542 -0.0000
vn -0.1421 -0.0000 0.9899
vn 0.3887 0.0000 -0.9214
vn 0.4842 0.0000 -0.8750
vn 0.3705 0.0000 -0.9288
vn 0.3705 -0.0000 0.9288
vn 0.4842 -0.0000 0.8750
vn 0.3887 -0.0000 0.9214
vn 0.3705 -0.0000 -0.9288
vn 0.1460 0.0000 -0.9893
vn -0.0000 0.0000 -1.0000
vn 0.1460 -0.0000 0.9893
vn 0.0000 -0.0000 1.0000
vn -0.0000 -0.0000 1.0000
# 33 vertex normals

vt 1.0000 0.0000 0.0000
vt -0.7255 1.4940 0.0000
vt 1.0000 1.4940 0.0000
vt 1.0000 2.9880 0.0000
vt 1.7255 1.4940 0.0000
vt 3.8088 1.4940 0.0000
vt 2.9640 0.0000 0.0000
vt 0.0000 0.0000 0.0000
vt 0.0000 1.4940 0.0000
vt 0.0000 2.9880 0.0000
vt 0.0000 -4.7994 0.0000
vt 2.9640 -4.7994 0.0000
vt 1.4940 -4.7994 0.0000
vt 1.4940 0.0000 0.0000
vt 2.9880 -4.7994 0.0000
vt 2.9880 0.0000 0.0000
vt 2.8796 -4.7994 0.0000
vt 2.8796 0.0000 0.0000
vt -1.9640 0.0000 0.0000
vt -2.8088 1.4940 0.0000
vt -1.9640 2.9880 0.0000
vt 2.9640 2.9880 0.0000
vt 9.8883 1.4940 0.0000
vt 11.6137 1.4940 0.0000
vt 11.6137 0.0000 0.0000
vt -10.6137 0.0000 0.0000
vt -10.6137 1.4940 0.0000
vt -8.8883 1.4940 0.0000
vt -10.6137 2.9880 0.0000
vt 11.6137 2.9880 0.0000
vt 7.8643 1.4940 0.0000
vt 8.7341 0.0000 0.0000
vt 5.8069 0.0000 0.0000
vt 5.8069 1.4940 0.0000
vt 8.7341 -4.7994 0.0000
vt 5.8069 -4.7994 0.0000
vt 8.6497 -4.7994 0.0000
vt 8.6497 0.0000 0.0000
vt -7.7341 0.0000 0.0000
vt -6.8643 1.4940 0.0000
vt -4.8069 1.4940 0.0000
vt -4.8069 0.0000 0.0000
vt -7.7341 2.9880 0.0000
vt -4.8069 2.9880 0.0000
vt 8.7341 2.9880 0.0000
vt 5.8069 2.9880 0.0000
vt 11.6137 -4.7994 0.0000
# 47 texture coords

g Box026
usemtl wire_227153153
s 2
f 1/1/1 2/2/2 3/3/3 
f 3/3/3 2/2/2 4/4/1 
s 4
f 5/5/4 6/6/5 7/7/6 8/8/7 
f 9/9/8 10/10/7 5/5/4 
s 8
f 8/11/9 7/12/9 11/7/10 1/8/10 
s 16
f 12/8/11 13/11/11 14/13/12 15/14/13 
f 15/14/13 14/13/12 16/15/14 17/16/14 
s 32
f 16/11/15 18/17/15 19/18/16 17/8/16 
s 64
f 4/8/17 10/11/17 9/13/18 3/14/19 
f 3/14/19 9/13/18 8/15/20 1/16/20 
s 2
f 11/19/21 20/20/21 2/2/2 1/1/1 
f 20/20/21 21/21/21 4/4/1 2/2/2 
s 4
f 8/8/7 9/9/8 5/5/4 
f 22/22/5 6/6/5 5/5/4 10/10/7 
f 23/23/22 14/24/23 13/25/24 
s 2
f 12/26/25 15/27/26 24/28/27 
f 24/28/27 15/27/26 17/29/25 
s 4
f 16/30/28 14/24/23 23/23/22 
f 25/31/29 26/32/29 27/33/30 28/34/30 
s 8
f 26/35/10 29/32/9 30/33/10 27/36/10 
s 32
f 22/37/16 21/38/15 31/33/15 32/36/15 
s 2
f 29/39/31 33/40/31 34/41/32 30/42/33 
f 33/40/31 19/43/31 31/44/32 34/41/32 
s 4
f 18/45/29 25/31/29 28/34/30 32/46/30 
s 32
f 32/36/15 31/33/15 19/18/16 18/17/15 
s 4
f 23/23/22 13/25/24 26/32/29 25/31/29 
s 8
f 13/47/10 12/25/9 29/32/9 26/35/10 
s 2
f 12/26/25 24/28/27 33/40/31 29/39/31 
f 24/28/27 17/29/25 19/43/31 33/40/31 
s 4
f 16/30/28 23/23/22 25/31/29 18/45/29 
f 28/34/30 27/33/30 7/7/6 6/6/5 
s 8
f 27/36/10 30/33/10 11/7/10 7/12/9 
s 2
f 30/42/33 34/41/32 20/20/21 11/19/21 
f 34/41/32 31/44/32 21/21/21 20/20/21 
s 4
f 32/46/30 28/34/30 6/6/5 22/22/5 
s 32
f 10/47/16 4/25/15 21/38/15 22/37/16 
# 28 polygons - 8 triangles

